# xmcd
#
# Track frame offsets:
#	150
#	19480
#	28670
#	38955
#	50877
#	55525
#	59735
#	73672
#	82715
#	89135
#	93390
#	106297
#	112452
#	124327
#	129237
#	144155
#	154342
#	157282
#	162577
#	167052
#	170570
#	172640
#	176880
#	188892
#	194970
#	198415
#	205907
#	208692
#	216847
#	223147
#	227372
#	230902
#	239550
#	243392
#	246727
#	261765
#	271860
#	276980
#	281415
#	289992
#	292652
#	295520
#	300525
#	316135
#	318822
#
# Disc length: 4347 seconds
#
# Revision: 1
# Processed by: cddbd v1.4PL0 Copyright (c) Steve Scherf et al.
# Submitted via: audiograbber 1.81.03
#
DISCID=c510f92d
DTITLE=Tim and Willy - Box Of Puppies (Disk 1)
DYEAR=2002
DGENRE=Country
TTITLE0=Nickel Creek - "The Fox"
TTITLE1=Larry The Cable Guy - " Letter From A Pigmy"
TTITLE2=The Mark and Tom Show
TTITLE3=Box Of Puppies
TTITLE4=Brian Regan - "News You Can Trust"
TTITLE5=Attack Chicken #1
TTITLE6=Tim and Willy - "Too Hot To Be Outside"
TTITLE7=Bob Eubanks - "That'd Be The Butt, Bob"
TTITLE8=Bob Eubanks - "Blow Up"
TTITLE9=Attack Chicken #2
TTITLE10=Willy D. Loon, Speaking - "Under God"
TTITLE11=Afghanistan's #1 Comic
TTITLE12=Tim and Willy - " Only In Afghanistan"
TTITLE13=Greg Hahn - " The Marines"
TTITLE14=Tim and Willy - "Stupid"
TTITLE15="Ed McBain" Wake - up
TTITLE16=Jake Plummer
TTITLE17=Sean Morey - "It's Gonna Be A Great Day"
TTITLE18=The Attack Chicken Is Dead!
TTITLE19="Happy Armpit To You"
TTITLE20=Jay Mohr - "The Turtle and The Snail"
TTITLE21=In Line At The Dairy Queen 
TTITLE22=Tim and Willy - "Dairy Queen Song"
TTITLE23=Lou Ferrigno......Is Alive!
TTITLE24=Hip Hop Barber Shop
TTITLE25=Tim and Willy - "Baby, We Love Mike Fetters!"
TTITLE26=Bill Engvall - "Croc Hunter"
TTITLE27=Steve Irwin - The Croc Hunter
TTITLE28=Camera In A Pill
TTITLE29=Mitch Hedberg - "The Letter - X"
TTITLE30=Anna Nicle Smith
TTITLE31=Andy Griggs and Miss Cleo
TTITLE32=ARJ Barker - Wake - up Call
TTITLE33=What's A Henweigh?
TTITLE34=Willy D. Loon, Speaking - "Bellringer"
TTITLE35=Andy Griggs - "Ted Williams Song"
TTITLE36=Jared From Subway
TTITLE37=Mary Ellen Hooper - "Comedy Awards"
TTITLE38=Mike Chamberlin - "News Blues"
TTITLE39=The Folding Bottle
TTITLE40=Tom McTigue - "Palestinians"
TTITLE41="Diarrhea Polka"
TTITLE42="Taliban"
TTITLE43=On The Bus With Toby Keith
TTITLE44="Starkist"
EXTD=
EXTT0=
EXTT1=
EXTT2=
EXTT3=
EXTT4=
EXTT5=
EXTT6=
EXTT7=
EXTT8=
EXTT9=
EXTT10=
EXTT11=
EXTT12=
EXTT13=
EXTT14=
EXTT15=
EXTT16=
EXTT17=
EXTT18=
EXTT19=
EXTT20=
EXTT21=
EXTT22=
EXTT23=
EXTT24=
EXTT25=
EXTT26=
EXTT27=
EXTT28=
EXTT29=
EXTT30=
EXTT31=
EXTT32=
EXTT33=
EXTT34=
EXTT35=
EXTT36=
EXTT37=
EXTT38=
EXTT39=
EXTT40=
EXTT41=
EXTT42=
EXTT43=
EXTT44=
PLAYORDER=
